# xmcd CD database file
#
# Track frame offsets:
#	150
#	18422
#	38435
#
# Disc length: 774 seconds
#
# Revision: 1
# Processed by: cddbd v1.5.1PL0 Copyright (c) Steve Scherf et al.
# Submitted via: CDex 1.51
#
DISCID=15030403
DTITLE=Vigilante - Thumbnail At You, Master
DYEAR=1999
DGENRE=Heavy Metal
TTITLE0=Thumbnail At You, Master
TTITLE1=Prisoner Of Fate (Remix Version)
TTITLE2=Relapse Of Your Privacy (Remix Version)
EXTD=YEAR: 1999
EXTT0=
EXTT1=
EXTT2=
PLAYORDER=
